<svg width="22" height="22" viewBox="0 0 22 22" fill="none" xmlns="http://www.w3.org/2000/svg">
<path d="M9.55263 5.81842L14.4447 10.7105C14.5605 10.8263 14.6184 10.971 14.6184 11.1158C14.6184 11.2605 14.5605 11.4053 14.4447 11.521L9.78421 16.1816C9.55263 16.4132 9.20527 16.4132 8.97369 16.1816C8.74211 15.95 8.74211 15.6026 8.97369 15.371L13.229 11.1158L8.74211 6.62894C8.51053 6.39736 8.51053 6.04999 8.74211 5.81842C8.94474 5.58684 9.32105 5.58684 9.55263 5.81842ZM11 -5.72603e-06C17.079 -5.99175e-06 22 4.92105 22 11C22 17.0789 17.079 22 11 22C4.92105 22 -2.15106e-07 17.0789 -4.80825e-07 11C-7.46545e-07 4.92105 4.92105 -5.46031e-06 11 -5.72603e-06ZM11 1.15789C5.55789 1.15789 1.15789 5.55789 1.15789 11C1.15789 16.4421 5.5579 20.8421 11 20.8421C16.4421 20.8421 20.8421 16.4421 20.8421 11C20.8421 5.55789 16.4421 1.15789 11 1.15789Z" fill="white"/>
</svg>
