<svg width="24" height="24" viewBox="0 0 24 24" fill="none" xmlns="http://www.w3.org/2000/svg">
<path d="M13.579 17.6527L8.24213 12.3158C8.11581 12.1895 8.05266 12.0316 8.05266 11.8737C8.05266 11.7158 8.11581 11.5579 8.24213 11.4316L13.3263 6.34742C13.579 6.09479 13.9579 6.09479 14.2105 6.34742C14.4632 6.60005 14.4632 6.979 14.2105 7.23163L9.56844 11.8737L14.4632 16.7685C14.7158 17.0211 14.7158 17.4 14.4632 17.6527C14.2421 17.9053 13.8316 17.9053 13.579 17.6527ZM12 24C5.36845 24 3.87631e-05 18.6316 3.90529e-05 12C3.93428e-05 5.36847 5.36845 6.02207e-05 12 6.05106e-05C18.6316 6.08005e-05 24 5.36847 24 12C24 18.6316 18.6316 24 12 24ZM12 22.7369C17.9369 22.7369 22.7368 17.9369 22.7368 12C22.7368 6.06321 17.9369 1.26322 12 1.26322C6.06319 1.26322 1.26319 6.06321 1.26319 12C1.26319 17.9369 6.06319 22.7369 12 22.7369Z" fill="white"/>
</svg>
