<svg width="20" height="20" viewBox="0 0 20 20" fill="none" xmlns="http://www.w3.org/2000/svg">
<path d="M19 12.0002C18.7348 12.0002 18.4804 12.1055 18.2929 12.2931C18.1054 12.4806 18 12.735 18 13.0002V17.0002C18 17.2654 17.8946 17.5198 17.7071 17.7073C17.5196 17.8948 17.2652 18.0002 17 18.0002H3C2.73478 18.0002 2.48043 17.8948 2.29289 17.7073C2.10536 17.5198 2 17.2654 2 17.0002V13.0002C2 12.735 1.89464 12.4806 1.70711 12.2931C1.51957 12.1055 1.26522 12.0002 1 12.0002C0.734784 12.0002 0.48043 12.1055 0.292893 12.2931C0.105357 12.4806 0 12.735 0 13.0002V17.0002C0 17.7958 0.316071 18.5589 0.87868 19.1215C1.44129 19.6841 2.20435 20.0002 3 20.0002H17C17.7956 20.0002 18.5587 19.6841 19.1213 19.1215C19.6839 18.5589 20 17.7958 20 17.0002V13.0002C20 12.735 19.8946 12.4806 19.7071 12.2931C19.5196 12.1055 19.2652 12.0002 19 12.0002ZM9.29 13.7102C9.3851 13.8012 9.49725 13.8726 9.62 13.9202C9.7397 13.9731 9.86913 14.0004 10 14.0004C10.1309 14.0004 10.2603 13.9731 10.38 13.9202C10.5028 13.8726 10.6149 13.8012 10.71 13.7102L14.71 9.71018C14.8983 9.52188 15.0041 9.26649 15.0041 9.00018C15.0041 8.73388 14.8983 8.47849 14.71 8.29018C14.5217 8.10188 14.2663 7.99609 14 7.99609C13.7337 7.99609 13.4783 8.10188 13.29 8.29018L11 10.5902V1.00018C11 0.734967 10.8946 0.480613 10.7071 0.293076C10.5196 0.10554 10.2652 0.000183105 10 0.000183105C9.73478 0.000183105 9.48043 0.10554 9.29289 0.293076C9.10536 0.480613 9 0.734967 9 1.00018V10.5902L6.71 8.29018C6.61676 8.19694 6.50607 8.12298 6.38425 8.07252C6.26243 8.02206 6.13186 7.99609 6 7.99609C5.86814 7.99609 5.73757 8.02206 5.61575 8.07252C5.49393 8.12298 5.38324 8.19694 5.29 8.29018C5.19676 8.38342 5.1228 8.49411 5.07234 8.61593C5.02188 8.73776 4.99591 8.86832 4.99591 9.00018C4.99591 9.13204 5.02188 9.26261 5.07234 9.38443C5.1228 9.50626 5.19676 9.61694 5.29 9.71018L9.29 13.7102Z" fill="#3D3D3D"/>
</svg>
