<svg width="19" height="19" viewBox="0 0 19 19" fill="none" xmlns="http://www.w3.org/2000/svg">
<path d="M13.605 8.18127L9.60232 12.1839C9.50758 12.2786 9.38916 12.326 9.27074 12.326C9.15232 12.326 9.0339 12.2786 8.93916 12.1839L5.126 8.37074C4.93653 8.18127 4.93653 7.89706 5.126 7.70758C5.31548 7.51811 5.59969 7.51811 5.78916 7.70758L9.27074 11.1892L12.9418 7.51811C13.1313 7.32864 13.4155 7.32864 13.605 7.51811C13.7944 7.6839 13.7944 7.99179 13.605 8.18127ZM18.3655 9.36548C18.3655 14.3392 14.3392 18.3655 9.36548 18.3655C4.39179 18.3655 0.365479 14.3392 0.365479 9.36548C0.365479 4.39179 4.39179 0.365479 9.36548 0.365479C14.3392 0.365479 18.3655 4.39179 18.3655 9.36548ZM17.4181 9.36548C17.4181 4.91285 13.8181 1.31285 9.36548 1.31285C4.91285 1.31285 1.31285 4.91285 1.31285 9.36548C1.31285 13.8181 4.91285 17.4181 9.36548 17.4181C13.8181 17.4181 17.4181 13.8181 17.4181 9.36548Z" fill="#1D1D1D"/>
</svg>
