<svg width="36" height="24" viewBox="0 0 36 24" fill="none" xmlns="http://www.w3.org/2000/svg">
<path fill-rule="evenodd" clip-rule="evenodd" d="M23.388 0.780085C23.1251 0.78463 22.8637 0.808817 22.6067 0.852141L23.388 0.780325V0.780085ZM19.0209 4.31568C19.0145 4.39801 19.0113 4.48059 19.0113 4.56332V19.1523C19.0113 19.6493 19.1269 20.1413 19.3514 20.6004C19.5759 21.0595 19.905 21.4767 20.3199 21.828C20.7348 22.1794 21.2273 22.4581 21.7694 22.6483C22.3115 22.8385 22.8924 22.9363 23.4792 22.9363C24.0659 22.9363 24.6469 22.8385 25.189 22.6483C25.731 22.4581 26.2236 22.1794 26.6384 21.828C27.0533 21.4767 27.3824 21.0595 27.607 20.6004C27.8315 20.1413 27.9471 19.6493 27.9471 19.1523V4.71246L24.6513 4.13512C24.6537 4.13993 24.6561 4.14476 24.6585 4.1496C24.7226 4.28077 24.7556 4.42135 24.7556 4.56332L24.7557 19.1523C24.7557 19.2943 24.7226 19.4349 24.6585 19.566C24.5943 19.6972 24.5003 19.8164 24.3818 19.9168C24.2632 20.0172 24.1225 20.0968 23.9677 20.1511C23.8128 20.2055 23.6468 20.2334 23.4792 20.2334C23.3115 20.2334 23.1456 20.2055 22.9907 20.1511C22.8358 20.0968 22.6951 20.0172 22.5766 19.9168C22.458 19.8164 22.364 19.6972 22.2999 19.566C22.2357 19.4349 22.2027 19.2943 22.2027 19.1523L22.2026 4.56332C22.2026 4.42135 22.2357 4.28077 22.2999 4.1496C22.3241 4.10005 22.3526 4.0522 22.3851 4.00643L19.0209 4.31568ZM25.3312 1.11969C25.2842 1.10156 25.2368 1.0841 25.189 1.06734C24.6469 0.877173 24.0659 0.779297 23.4792 0.779297C23.4501 0.779297 23.4211 0.779537 23.3921 0.780015L25.3312 1.11969Z" fill="#CB0B0B"/>
<path d="M27.9471 9.57829H27.9472C27.9516 9.25975 28.0481 8.94467 28.2316 8.65024C28.4195 8.34878 28.6949 8.07487 29.042 7.84414C29.3892 7.61342 29.8013 7.4304 30.2549 7.30553C30.7084 7.18067 31.1946 7.1164 31.6855 7.1164C32.1764 7.1164 32.6626 7.18067 33.1161 7.30553C33.5697 7.4304 33.9818 7.61342 34.329 7.84414C34.6761 8.07487 34.9515 8.34878 35.1394 8.65024C35.3229 8.94467 35.4194 9.25975 35.4238 9.57829H35.4239V12.7696H32.2326V9.58223C32.2298 9.53287 32.2159 9.48422 32.1914 9.43849C32.1639 9.38694 32.1236 9.3401 32.0727 9.30065C32.0219 9.2612 31.9615 9.2299 31.8951 9.20855C31.8286 9.18719 31.7574 9.1762 31.6855 9.1762C31.6136 9.1762 31.5424 9.18719 31.4759 9.20855C31.4095 9.2299 31.3491 9.2612 31.2983 9.30065C31.2474 9.3401 31.2071 9.38694 31.1796 9.43849C31.1551 9.48424 31.1412 9.5329 31.1384 9.58227V20.7896C31.1412 20.839 31.1551 20.8876 31.1796 20.9334C31.2071 20.9849 31.2474 21.0318 31.2983 21.0712C31.3491 21.1107 31.4095 21.142 31.4759 21.1633C31.5424 21.1847 31.6136 21.1957 31.6855 21.1957C31.7574 21.1957 31.8286 21.1847 31.8951 21.1633C31.9615 21.142 32.0219 21.1107 32.0727 21.0712C32.1236 21.0318 32.1639 20.9849 32.1914 20.9334C32.2159 20.8877 32.2298 20.839 32.2326 20.7897V16.6904H35.4239V20.7936H35.4238C35.4194 21.1121 35.3229 21.4272 35.1394 21.7216C34.9515 22.0231 34.6761 22.297 34.329 22.5277C33.9818 22.7585 33.5697 22.9415 33.1161 23.0664C32.6626 23.1912 32.1764 23.2555 31.6855 23.2555C31.1946 23.2555 30.7084 23.1912 30.2549 23.0664C29.8013 22.9415 29.3892 22.7585 29.042 22.5277C28.6949 22.297 28.4195 22.0231 28.2316 21.7216C28.0481 21.4272 27.9516 21.1121 27.9472 20.7936H27.9471V9.57829Z" fill="white"/>
<path d="M9.18651 7.43553H5.99517L4.82121 10.4709L3.64725 7.43553H0.455906L3.22554 14.5966L0 22.9364H3.19134L4.82121 18.7223L6.45108 22.9364H9.64242L6.41688 14.5966L9.18651 7.43553Z" fill="white"/>
<path fill-rule="evenodd" clip-rule="evenodd" d="M12.4918 7.43553L9.98435 22.9364H13.1757L13.6919 19.745H15.7871L16.2987 22.9364H21.8835C24.4129 22.6428 24.7049 21.3647 25.0647 19.7893L25.0749 19.745L27.9471 7.43553H24.7557L23.4792 12.9064L22.2026 7.43553H19.0113L21.8835 19.745H18.9965L17.0053 7.43553H12.4918ZM15.2755 16.5537H14.2082L14.7443 13.2395L15.2755 16.5537Z" fill="white"/>
<path d="M23.388 0.779297L35.4239 2.55768V5.20159L23.388 3.4232V3.42355L0.455912 5.20159V2.5582L23.388 0.780085L23.388 0.779297Z" fill="#CB0B0B"/>
</svg>
