<svg width="19" height="19" viewBox="0 0 19 19" fill="none" xmlns="http://www.w3.org/2000/svg">
<path d="M9.5 19C7.62108 19 5.78435 18.4428 4.22209 17.399C2.65982 16.3551 1.44218 14.8714 0.723149 13.1355C0.00411622 11.3996 -0.184015 9.48946 0.182544 7.64665C0.549104 5.80383 1.45389 4.11109 2.78249 2.78249C4.11109 1.45389 5.80383 0.549104 7.64665 0.182544C9.48946 -0.184015 11.3996 0.00411622 13.1355 0.723149C14.8714 1.44218 16.3551 2.65982 17.399 4.22209C18.4428 5.78435 19 7.62108 19 9.5C19 12.0196 17.9991 14.4359 16.2175 16.2175C14.4359 17.9991 12.0196 19 9.5 19ZM9.5 1.58334C7.93423 1.58334 6.40363 2.04764 5.10174 2.91754C3.79985 3.78743 2.78515 5.02384 2.18596 6.47043C1.58676 7.91701 1.42999 9.50878 1.73545 11.0445C2.04092 12.5801 2.79491 13.9908 3.90207 15.0979C5.00924 16.2051 6.41986 16.9591 7.95554 17.2646C9.49122 17.57 11.083 17.4132 12.5296 16.814C13.9762 16.2149 15.2126 15.2002 16.0825 13.8983C16.9524 12.5964 17.4167 11.0658 17.4167 9.5C17.4167 7.40037 16.5826 5.38674 15.0979 3.90207C13.6133 2.41741 11.5996 1.58334 9.5 1.58334Z" fill="white"/>
<path d="M13.4583 13.8542C13.2621 13.8537 13.0731 13.7803 12.9279 13.6483L8.96958 10.0858C8.88757 10.0118 8.82196 9.92145 8.77697 9.82056C8.73197 9.71966 8.70859 9.61047 8.70833 9.5V5.54167C8.70833 5.3317 8.79174 5.13034 8.94021 4.98187C9.08867 4.83341 9.29004 4.75 9.5 4.75C9.70996 4.75 9.91132 4.83341 10.0598 4.98187C10.2083 5.13034 10.2917 5.3317 10.2917 5.54167V9.14375L13.9887 12.4687C14.1098 12.5755 14.1953 12.7167 14.2339 12.8734C14.2724 13.0301 14.2622 13.1949 14.2045 13.3456C14.1468 13.4963 14.0444 13.6258 13.911 13.7167C13.7777 13.8076 13.6197 13.8556 13.4583 13.8542Z" fill="white"/>
</svg>
