<svg width="40" height="41" viewBox="0 0 40 41" fill="none" xmlns="http://www.w3.org/2000/svg">
<path d="M20.0924 40.4438C16.1604 40.4438 12.3167 39.2778 9.0474 37.0934C5.77807 34.9089 3.22994 31.804 1.72523 28.1713C0.220528 24.5386 -0.173172 20.5413 0.593921 16.6849C1.36101 12.8284 3.25444 9.28606 6.03478 6.50573C8.81511 3.72539 12.3575 1.83196 16.2139 1.06487C20.0703 0.297776 24.0676 0.691475 27.7003 2.19618C31.333 3.70089 34.4379 6.24902 36.6224 9.51834C38.8069 12.7877 39.9729 16.6314 39.9729 20.5633C39.9729 25.836 37.8783 30.8926 34.15 34.621C30.4217 38.3493 25.365 40.4438 20.0924 40.4438ZM20.0924 3.99628C16.8157 3.99628 13.6127 4.96792 10.8882 6.78834C8.16379 8.60875 6.04035 11.1962 4.78643 14.2234C3.53251 17.2506 3.20442 20.5817 3.84367 23.7954C4.48291 27.0091 6.06077 29.9611 8.37771 32.278C10.6947 34.595 13.6466 36.1728 16.8603 36.8121C20.074 37.4513 23.4051 37.1232 26.4323 35.8693C29.4596 34.6154 32.047 32.4919 33.8674 29.7675C35.6878 27.0431 36.6595 23.84 36.6595 20.5633C36.6595 16.1695 34.914 11.9556 31.8071 8.84866C28.7002 5.74174 24.4863 3.99628 20.0924 3.99628Z" fill="white"/>
<path d="M28.3759 29.6752C27.9653 29.6741 27.5698 29.5206 27.2659 29.2445L18.9824 21.7893C18.8108 21.6344 18.6735 21.4453 18.5793 21.2342C18.4852 21.023 18.4362 20.7945 18.4357 20.5633V12.2798C18.4357 11.8404 18.6102 11.419 18.9209 11.1083C19.2316 10.7976 19.653 10.6231 20.0924 10.6231C20.5318 10.6231 20.9532 10.7976 21.2639 11.1083C21.5745 11.419 21.7491 11.8404 21.7491 12.2798V19.8178L29.4859 26.776C29.7392 26.9994 29.9182 27.2948 29.9989 27.6228C30.0796 27.9507 30.0581 28.2955 29.9374 28.6109C29.8166 28.9263 29.6023 29.1973 29.3233 29.3875C29.0442 29.5777 28.7136 29.6781 28.3759 29.6752Z" fill="white"/>
</svg>
