<svg width="22" height="14" viewBox="0 0 22 14" fill="none" xmlns="http://www.w3.org/2000/svg">
<path d="M10.8915 13.0558H12.1609C12.1609 13.0558 12.5446 13.013 12.7398 12.8002C12.9204 12.6049 12.9137 12.2382 12.9137 12.2382C12.9137 12.2382 12.8885 10.5215 13.6799 10.2686C14.4593 10.0197 15.4604 11.9278 16.5213 12.6624C17.3233 13.2177 17.9328 13.096 17.9328 13.096L20.7703 13.0558C20.7703 13.0558 22.2548 12.9635 21.551 11.7873C21.4939 11.691 21.1408 10.9176 19.4412 9.32793C17.6619 7.66336 17.9009 7.93365 20.044 5.05545C21.3492 3.30257 21.871 2.23211 21.7077 1.77448C21.5524 1.33827 20.5924 1.45335 20.5924 1.45335L17.4003 1.47208C17.4003 1.47208 17.164 1.43996 16.9874 1.54567C16.8161 1.65004 16.7059 1.8909 16.7059 1.8909C16.7059 1.8909 16.2 3.24771 15.5255 4.40113C14.1034 6.83509 13.5338 6.96355 13.3014 6.81234C12.761 6.46043 12.8965 5.39666 12.8965 4.64198C12.8965 2.28295 13.251 1.29947 12.2047 1.04523C11.8568 0.960933 11.6019 0.904734 10.7136 0.895368C9.57431 0.883325 8.609 0.899382 8.06328 1.16834C7.69946 1.34764 7.4193 1.74772 7.59058 1.77047C7.8017 1.79857 8.27971 1.90026 8.53332 2.24816C8.86128 2.69642 8.84933 3.70533 8.84933 3.70533C8.84933 3.70533 9.03788 6.48184 8.40983 6.82706C7.9783 7.0639 7.38743 6.58086 6.11938 4.37169C5.47009 3.24102 4.9788 1.98991 4.9788 1.98991C4.9788 1.98991 4.88453 1.75709 4.7159 1.63265C4.51142 1.48145 4.22462 1.43327 4.22462 1.43327L1.18927 1.45201C1.18927 1.45201 0.733837 1.46539 0.566534 1.66476C0.417821 1.84273 0.554584 2.20936 0.554584 2.20936C0.554584 2.20936 2.93134 7.81189 5.62146 10.6366C8.08983 13.2257 10.8915 13.0558 10.8915 13.0558V13.0558Z" fill="#1D1D1D"/>
</svg>
