<svg width="19" height="18" viewBox="0 0 19 18" fill="none" xmlns="http://www.w3.org/2000/svg">
<path d="M8.25 4.76053L12.475 8.76316C12.575 8.85789 12.625 8.97631 12.625 9.09474C12.625 9.21316 12.575 9.33158 12.475 9.42631L8.45 13.2395C8.25 13.4289 7.95 13.4289 7.75 13.2395C7.55 13.05 7.55 12.7658 7.75 12.5763C9.74672 10.6847 9.74672 7.50478 7.75 5.61316L7.55 5.42368C7.35 5.23421 7.35 4.95 7.55 4.76053C7.725 4.57105 8.05 4.57105 8.25 4.76053ZM9.5 -4.01547e-07C14.75 -6.23455e-07 19 4.02631 19 9C19 13.9737 14.75 18 9.5 18C4.25 18 -1.82005e-07 13.9737 -4.06835e-07 9C-6.31665e-07 4.02632 4.25 -1.7964e-07 9.5 -4.01547e-07ZM9.5 0.947368C4.8 0.947368 0.999999 4.54737 1 9C1 13.4526 4.8 17.0526 9.5 17.0526C14.2 17.0526 18 13.4526 18 9C18 4.54737 14.2 0.947368 9.5 0.947368Z" fill="black"/>
</svg>
