<svg width="25" height="20" viewBox="0 0 25 20" fill="none" xmlns="http://www.w3.org/2000/svg">
<path d="M14.4993 1.251C14.4993 2.45565 13.5191 3.43556 12.3147 3.43556C11.11 3.43556 10.1301 2.45565 10.1301 1.251H8.55094C8.55094 3.32631 10.2394 5.01475 12.3147 5.01475C14.39 5.01475 16.0785 3.32631 16.0785 1.251H14.4993Z" fill="white"/>
<path d="M24.0995 5.99965L17.9935 0.6567C17.8495 0.530815 17.6647 0.461434 17.4734 0.461426H7.15596C6.96469 0.461516 6.77993 0.530886 6.63587 0.6567L0.52967 5.99965C0.221714 6.26918 0.17067 6.72923 0.411997 7.05955L3.12295 10.7709C3.37982 11.122 3.87255 11.1994 4.22472 10.9439L5.74944 9.83629L5.68205 18.8793C5.68134 18.9835 5.70123 19.0868 5.74056 19.1833C5.7799 19.2798 5.83792 19.3675 5.91128 19.4415C5.98464 19.5155 6.07193 19.5742 6.1681 19.6143C6.26428 19.6544 6.36744 19.675 6.47163 19.675H18.1577C18.2619 19.6749 18.3651 19.6543 18.4612 19.6142C18.5574 19.5741 18.6447 19.5154 18.7181 19.4415C18.7915 19.3675 18.8495 19.2798 18.8888 19.1833C18.9282 19.0868 18.948 18.9835 18.9473 18.8793L18.8796 9.83629L20.4041 10.9439C20.7565 11.1994 21.249 11.1226 21.5061 10.7709L24.2171 7.05955C24.4585 6.72923 24.4074 6.26918 24.0995 5.99965ZM20.6958 9.20385L18.543 7.63992C18.4247 7.55415 18.285 7.50283 18.1393 7.49163C17.9936 7.48044 17.8477 7.50981 17.7176 7.57649C17.5876 7.64324 17.4788 7.74479 17.4031 7.8698C17.3274 7.99481 17.288 8.13838 17.2891 8.2845L17.3623 18.0958H7.26732L7.34021 8.28399C7.34127 8.13788 7.30178 7.99435 7.22613 7.86936C7.15048 7.74436 7.04164 7.6428 6.91171 7.57597C6.78174 7.5093 6.63584 7.47994 6.49019 7.49113C6.34454 7.50233 6.20484 7.55365 6.08659 7.6394L3.93386 9.20333L2.11386 6.7119L7.45261 2.04062H17.1768L22.5155 6.71242L20.6958 9.20385Z" fill="white"/>
</svg>
