<svg width="24" height="24" viewBox="0 0 24 24" fill="none" xmlns="http://www.w3.org/2000/svg">
<path d="M12.2794 4.75008L13.5842 3.44527C14.0418 2.98723 14.5852 2.62383 15.1833 2.37585C15.7814 2.12787 16.4225 2.00015 17.0699 2C17.7174 1.99985 18.3586 2.12727 18.9568 2.37497C19.555 2.62268 20.0985 2.98582 20.5564 3.44364C21.0142 3.90147 21.3773 4.44502 21.625 5.04323C21.8727 5.64143 22.0002 6.28259 22 6.93005C21.9998 7.57752 21.8721 8.21861 21.6242 8.81671C21.3762 9.4148 21.0128 9.95818 20.5547 10.4158L17.3863 13.5842C16.9286 14.0419 16.3853 14.405 15.7873 14.6527C15.1893 14.9004 14.5483 15.0279 13.9011 15.0279C13.2538 15.0279 12.6128 14.9004 12.0148 14.6527C11.4168 14.405 10.8735 14.0419 10.4158 13.5842M11.7204 19.2501L10.4158 20.5547C9.95818 21.0128 9.4148 21.3762 8.81671 21.6242C8.21861 21.8721 7.57752 21.9999 6.93005 22C6.28259 22.0002 5.64143 21.8727 5.04323 21.625C4.44502 21.3773 3.90147 21.0142 3.44364 20.5564C2.98582 20.0985 2.62268 19.555 2.37497 18.9568C2.12727 18.3586 1.99985 17.7174 2 17.0699C2.00015 16.4225 2.12787 15.7814 2.37585 15.1833C2.62383 14.5852 2.98723 14.0418 3.44527 13.5842L6.61369 10.4158C7.07138 9.9581 7.61474 9.59504 8.21274 9.34734C8.81074 9.09964 9.45168 8.97215 10.0989 8.97215C10.7462 8.97215 11.3872 9.09964 11.9852 9.34734C12.5832 9.59504 13.1265 9.9581 13.5842 10.4158" stroke="black" stroke-width="2.68849" stroke-linecap="round" stroke-linejoin="round"/>
</svg>
