<svg width="24" height="18" viewBox="0 0 24 18" fill="none" xmlns="http://www.w3.org/2000/svg">
<path d="M22.522 14.3794C22.8517 14.5882 22.9566 14.7299 22.9885 14.7857C22.9566 14.8415 22.8517 14.9832 22.522 15.192C22.036 15.4997 21.2665 15.814 20.2265 16.0926C18.1612 16.6458 15.2523 17 12 17C8.74773 17 5.83881 16.6458 3.77345 16.0926C2.73349 15.814 1.96396 15.4997 1.47804 15.192C1.14828 14.9832 1.04343 14.8415 1.0115 14.7857C1.04343 14.7299 1.14828 14.5882 1.47804 14.3794C1.96396 14.0717 2.73349 13.7574 3.77345 13.4788C5.83881 12.9256 8.74773 12.5714 12 12.5714C15.2523 12.5714 18.1612 12.9256 20.2265 13.4788C21.2665 13.7574 22.036 14.0717 22.522 14.3794Z" stroke="white" stroke-width="2" stroke-linejoin="round"/>
<path d="M20.4943 14.5367C20.4946 14.5367 20.4924 14.5389 20.4867 14.5434C20.4912 14.5389 20.494 14.5367 20.4943 14.5367ZM18.2791 14.4705C18.9462 14.5658 19.4855 14.6736 19.8805 14.7857C19.4855 14.8979 18.9462 15.0056 18.2791 15.1009C16.6863 15.3284 14.466 15.4714 12 15.4714C9.53398 15.4714 7.31368 15.3284 5.72089 15.1009C5.05383 15.0056 4.51448 14.8979 4.11949 14.7857C4.51448 14.6736 5.05383 14.5658 5.72089 14.4705C7.31368 14.243 9.53398 14.1 12 14.1C14.466 14.1 16.6863 14.243 18.2791 14.4705ZM3.50567 14.5367C3.50596 14.5367 3.5088 14.5389 3.51334 14.5434C3.50765 14.5389 3.50538 14.5367 3.50567 14.5367ZM3.50567 15.0347C3.50538 15.0347 3.50765 15.0325 3.51334 15.0281C3.5088 15.0326 3.50596 15.0348 3.50567 15.0347ZM20.4867 15.0281C20.4923 15.0325 20.4946 15.0347 20.4943 15.0347C20.494 15.0348 20.4912 15.0326 20.4867 15.0281Z" fill="white" stroke="white" stroke-width="1.2" stroke-linejoin="round"/>
<path fill-rule="evenodd" clip-rule="evenodd" d="M17.5645 4.32934C17.7058 4.43128 17.8585 4.51131 18.0182 4.56797H17.529C17.2117 4.56797 16.8977 4.63734 16.6058 4.77188C16.314 4.90641 16.0504 5.10334 15.8309 5.35081C15.6115 5.59827 15.4406 5.89115 15.3287 6.21179C15.2169 6.53243 15.1662 6.87421 15.1799 7.21654L15.2774 9.98383C15.2883 10.3235 15.4197 10.6456 15.6442 10.8837C15.8688 11.1218 16.1695 11.2576 16.4841 11.2633L16.9096 14.4743C16.9211 14.5607 16.961 14.6398 17.0221 14.697C17.0832 14.7542 17.1613 14.7857 17.2422 14.7857H19.9581C20.0389 14.7856 20.1169 14.7541 20.1779 14.6969C20.2389 14.6397 20.2788 14.5607 20.2902 14.4743L20.7157 11.2633C21.0304 11.2576 21.331 11.1218 21.5556 10.8837C21.7802 10.6456 21.9115 10.3235 21.9225 9.98383L22.0199 7.21847C22.0339 6.87599 21.9834 6.534 21.8717 6.21313C21.7599 5.89226 21.5891 5.59916 21.3696 5.35149C21.1501 5.10382 20.8864 4.90671 20.5944 4.77205C20.3025 4.63739 19.9883 4.56797 19.6708 4.56797H19.1806C19.4559 4.47034 19.7089 4.30389 19.9176 4.07854C20.2671 3.70122 20.4637 3.18961 20.4642 2.65597C20.4643 2.25786 20.355 1.86867 20.1502 1.53762C19.9454 1.20659 19.6543 0.948558 19.3136 0.796171C18.973 0.643784 18.5982 0.60389 18.2366 0.681537C17.875 0.75917 17.5428 0.95086 17.2821 1.23234C17.0214 1.51384 16.8439 1.87249 16.7719 2.26295C16.7 2.65342 16.7369 3.05814 16.8779 3.42595C17.019 3.79376 17.258 4.10814 17.5645 4.32934ZM17.5295 5.29341C17.3028 5.29344 17.0784 5.34303 16.8699 5.43918C16.6614 5.53535 16.4732 5.6761 16.3164 5.85294C16.1596 6.02978 16.0377 6.23907 15.9578 6.46818C15.8779 6.6973 15.8419 6.94151 15.8517 7.18608L15.9492 9.95555C15.9542 10.112 16.0155 10.2602 16.12 10.3688C16.2245 10.4773 16.364 10.5377 16.509 10.5371H16.7764C16.8572 10.5372 16.9353 10.5687 16.9964 10.6259C17.0574 10.6831 17.0973 10.7621 17.1087 10.8486L17.5342 14.0593H18.6259C18.6341 14.0593 18.6423 14.0597 18.6505 14.0603H19.667L20.0925 10.8495C20.1039 10.7631 20.1438 10.6841 20.2048 10.6269C20.2659 10.5696 20.344 10.5381 20.4248 10.5381H20.6917C20.8367 10.5387 20.9763 10.4783 21.0808 10.3697C21.1853 10.2612 21.2465 10.113 21.2516 9.95651L21.349 7.18897C21.3592 6.94416 21.3235 6.69965 21.2438 6.47019C21.1641 6.24075 21.0422 6.03111 20.8854 5.85394C20.7285 5.67679 20.5401 5.53578 20.3315 5.43944C20.1228 5.3431 19.8982 5.29342 19.6713 5.29341H17.5295ZM18.6001 1.36856C18.3643 1.36856 18.1338 1.44406 17.9377 1.58553C17.7417 1.72699 17.5889 1.92806 17.4986 2.1633C17.4084 2.39854 17.3848 2.6574 17.4308 2.90713C17.4768 3.15686 17.5904 3.38626 17.7571 3.56631C17.9238 3.74635 18.1363 3.86896 18.3676 3.91864C18.5988 3.96831 18.8385 3.94283 19.0564 3.84537C19.2743 3.74793 19.4605 3.58293 19.5915 3.37121C19.7225 3.15951 19.7924 2.91059 19.7924 2.65597C19.792 2.31464 19.6663 1.98742 19.4428 1.74606C19.2193 1.50471 18.9162 1.36894 18.6001 1.36856Z" fill="#8F8F8F"/>
<path d="M17.5295 5.29341C17.3028 5.29344 17.0784 5.34303 16.8699 5.43918C16.6614 5.53535 16.4732 5.6761 16.3164 5.85294C16.1596 6.02978 16.0377 6.23907 15.9578 6.46818C15.8779 6.6973 15.8419 6.94151 15.8517 7.18608L15.9492 9.95555C15.9542 10.112 16.0155 10.2602 16.12 10.3688C16.2245 10.4773 16.364 10.5377 16.509 10.5371H16.7764C16.8572 10.5372 16.9353 10.5687 16.9964 10.6259C17.0574 10.6831 17.0973 10.7621 17.1087 10.8486L17.5342 14.0593H18.6259C18.6341 14.0593 18.6423 14.0597 18.6505 14.0603H19.667L20.0925 10.8495C20.1039 10.7631 20.1438 10.6841 20.2048 10.6269C20.2659 10.5696 20.344 10.5381 20.4248 10.5381H20.6917C20.8367 10.5387 20.9763 10.4783 21.0808 10.3697C21.1853 10.2612 21.2465 10.113 21.2516 9.95651L21.349 7.18897C21.3592 6.94416 21.3235 6.69965 21.2438 6.47019C21.1641 6.24075 21.0422 6.03111 20.8854 5.85394C20.7285 5.67679 20.5401 5.53578 20.3315 5.43944C20.1228 5.3431 19.8982 5.29342 19.6713 5.29341H17.5295Z" fill="#8F8F8F"/>
<path d="M17.9377 1.58553C18.1338 1.44406 18.3643 1.36856 18.6001 1.36856C18.9162 1.36894 19.2193 1.50471 19.4428 1.74606C19.6663 1.98742 19.792 2.31464 19.7924 2.65597C19.7924 2.91059 19.7225 3.15951 19.5915 3.37121C19.4605 3.58293 19.2743 3.74793 19.0564 3.84537C18.8385 3.94283 18.5988 3.96831 18.3676 3.91864C18.1363 3.86896 17.9238 3.74635 17.7571 3.56631C17.5904 3.38626 17.4768 3.15686 17.4308 2.90713C17.3848 2.6574 17.4084 2.39854 17.4986 2.1633C17.5889 1.92806 17.7417 1.72699 17.9377 1.58553Z" fill="#8F8F8F"/>
<path fill-rule="evenodd" clip-rule="evenodd" d="M4.34233 4.32934C4.48361 4.43128 4.63633 4.51131 4.79603 4.56797H4.30688C3.98956 4.56797 3.67552 4.63734 3.38367 4.77188C3.09186 4.90641 2.82825 5.10334 2.60877 5.35081C2.38929 5.59827 2.21846 5.89115 2.10658 6.21179C1.99469 6.53243 1.94406 6.87421 1.95776 7.21654L2.05518 9.98383C2.06615 10.3235 2.1975 10.6456 2.42206 10.8837C2.64663 11.1218 2.9473 11.2576 3.26197 11.2633L3.68746 14.4743C3.69889 14.5607 3.73883 14.6398 3.7999 14.697C3.86099 14.7542 3.93915 14.7857 4.02001 14.7857H6.73595C6.81673 14.7856 6.89478 14.7541 6.95577 14.6969C7.01678 14.6397 7.05664 14.5607 7.06804 14.4743L7.49353 11.2633C7.80822 11.2576 8.10887 11.1218 8.33346 10.8837C8.55803 10.6456 8.68935 10.3235 8.70034 9.98383L8.79774 7.21847C8.81168 6.87599 8.76125 6.534 8.6495 6.21313C8.53772 5.89226 8.36692 5.59916 8.14741 5.35149C7.9279 5.10382 7.66421 4.90671 7.37226 4.77205C7.08031 4.63739 6.76611 4.56797 6.44862 4.56797H5.95843C6.2337 4.47034 6.48676 4.30389 6.69547 4.07854C7.04494 3.70122 7.24151 3.18961 7.24203 2.65597C7.24209 2.25786 7.1328 1.86867 6.92799 1.53762C6.72319 1.20659 6.43208 0.948558 6.09147 0.796171C5.75086 0.643784 5.37605 0.60389 5.01445 0.681537C4.65285 0.75917 4.32068 0.95086 4.05995 1.23234C3.79924 1.51384 3.62169 1.87249 3.54974 2.26295C3.47779 2.65342 3.5147 3.05814 3.65578 3.42595C3.79686 3.79376 4.03578 4.10814 4.34233 4.32934ZM4.30734 5.29341C4.08061 5.29344 3.85626 5.34303 3.64777 5.43918C3.43928 5.53535 3.25098 5.6761 3.09424 5.85294C2.93746 6.02978 2.81549 6.23907 2.73561 6.46818C2.65576 6.6973 2.61971 6.94151 2.62957 7.18608L2.727 9.95555C2.73206 10.112 2.79332 10.2602 2.89783 10.3688C3.00231 10.4773 3.14183 10.5377 3.28685 10.5371H3.55423C3.63506 10.5372 3.71316 10.5687 3.7742 10.6259C3.83524 10.6831 3.87513 10.7621 3.88655 10.8486L4.31204 14.0593H5.40375C5.41197 14.0593 5.42018 14.0597 5.42835 14.0603H6.44482L6.87031 10.8495C6.88174 10.7631 6.92162 10.6841 6.98267 10.6269C7.04371 10.5696 7.12181 10.5381 7.20264 10.5381H7.46958C7.61457 10.5387 7.7541 10.4783 7.8586 10.3697C7.96308 10.2612 8.02434 10.113 8.02943 9.95651L8.12683 7.18897C8.13708 6.94416 8.10129 6.69965 8.02161 6.47019C7.94192 6.24075 7.82 6.03111 7.6632 5.85394C7.50637 5.67679 7.31797 5.53578 7.10929 5.43944C6.9006 5.3431 6.67603 5.29342 6.44909 5.29341H4.30734ZM5.37797 1.36856C5.14217 1.36856 4.91167 1.44406 4.71558 1.58553C4.51953 1.72699 4.36672 1.92806 4.27648 2.1633C4.18624 2.39854 4.16262 2.6574 4.20863 2.90713C4.25464 3.15686 4.36819 3.38626 4.53492 3.56631C4.70167 3.74635 4.9141 3.86896 5.14539 3.91864C5.37666 3.96831 5.61637 3.94283 5.83424 3.84537C6.05208 3.74793 6.2383 3.58293 6.36929 3.37121C6.50032 3.15951 6.57021 2.91059 6.57021 2.65597C6.56986 2.31464 6.44414 1.98742 6.22064 1.74606C5.99711 1.50471 5.69406 1.36894 5.37797 1.36856Z" fill="#8F8F8F"/>
<path d="M4.30734 5.29341C4.08061 5.29344 3.85626 5.34303 3.64777 5.43918C3.43928 5.53535 3.25098 5.6761 3.09424 5.85294C2.93746 6.02978 2.81549 6.23907 2.73561 6.46818C2.65576 6.6973 2.61971 6.94151 2.62957 7.18608L2.727 9.95555C2.73206 10.112 2.79332 10.2602 2.89783 10.3688C3.00231 10.4773 3.14183 10.5377 3.28685 10.5371H3.55423C3.63506 10.5372 3.71316 10.5687 3.7742 10.6259C3.83524 10.6831 3.87513 10.7621 3.88655 10.8486L4.31204 14.0593H5.40375C5.41197 14.0593 5.42018 14.0597 5.42835 14.0603H6.44482L6.87031 10.8495C6.88174 10.7631 6.92162 10.6841 6.98267 10.6269C7.04371 10.5696 7.12181 10.5381 7.20264 10.5381H7.46958C7.61457 10.5387 7.7541 10.4783 7.8586 10.3697C7.96308 10.2612 8.02434 10.113 8.02943 9.95651L8.12683 7.18897C8.13708 6.94416 8.10129 6.69965 8.02161 6.47019C7.94192 6.24075 7.82 6.03111 7.6632 5.85394C7.50637 5.67679 7.31797 5.53578 7.10929 5.43944C6.9006 5.3431 6.67603 5.29342 6.44909 5.29341H4.30734Z" fill="#8F8F8F"/>
<path d="M4.71558 1.58553C4.91167 1.44406 5.14217 1.36856 5.37797 1.36856C5.69406 1.36894 5.99711 1.50471 6.22064 1.74606C6.44414 1.98742 6.56986 2.31464 6.57021 2.65597C6.57021 2.91059 6.50032 3.15951 6.36929 3.37121C6.2383 3.58293 6.05208 3.74793 5.83424 3.84537C5.61637 3.94283 5.37666 3.96831 5.14539 3.91864C4.9141 3.86896 4.70167 3.74635 4.53492 3.56631C4.36819 3.38626 4.25464 3.15686 4.20863 2.90713C4.16262 2.6574 4.18624 2.39854 4.27648 2.1633C4.36672 1.92806 4.51953 1.72699 4.71558 1.58553Z" fill="#8F8F8F"/>
<path fill-rule="evenodd" clip-rule="evenodd" d="M10.7293 4.52428C10.9026 4.64939 11.0901 4.74762 11.2861 4.81716H10.6857C10.2963 4.81716 9.9109 4.90229 9.55273 5.06741C9.19459 5.23251 8.87108 5.4742 8.60171 5.77791C8.33234 6.08161 8.1227 6.44106 7.98538 6.83457C7.84806 7.22808 7.78593 7.64753 7.80274 8.06767L7.92231 11.4639C7.93576 11.8807 8.09696 12.276 8.37257 12.5682C8.64818 12.8604 9.01718 13.0272 9.40337 13.0341L9.92556 16.9749C9.93958 17.081 9.9886 17.1781 10.0635 17.2483C10.1385 17.3185 10.2344 17.3571 10.3337 17.3571H13.6669C13.766 17.357 13.8618 17.3183 13.9367 17.2481C14.0115 17.1779 14.0605 17.0809 14.0744 16.9749L14.5966 13.0341C14.9829 13.0272 15.3518 12.8604 15.6275 12.5682C15.9031 12.276 16.0642 11.8807 16.0777 11.4639L16.1973 8.07004C16.2144 7.64972 16.1525 7.23 16.0153 6.83622C15.8781 6.44241 15.6685 6.0827 15.3991 5.77874C15.1297 5.47478 14.8061 5.23288 14.4478 5.06761C14.0895 4.90234 13.7039 4.81716 13.3143 4.81716H12.7127C13.0505 4.69734 13.3611 4.49306 13.6172 4.21648C14.0461 3.75341 14.2873 3.12553 14.288 2.47061C14.2881 1.98202 14.1539 1.50437 13.9026 1.09809C13.6512 0.691822 13.294 0.375146 12.8759 0.188126C12.4579 0.00110509 11.9979 -0.0478553 11.5541 0.0474391C11.1103 0.142715 10.7027 0.377972 10.3827 0.72343C10.0627 1.06891 9.84484 1.50906 9.75654 1.98827C9.66824 2.46747 9.71353 2.96418 9.88667 3.41558C10.0598 3.86698 10.353 4.25282 10.7293 4.52428ZM10.6863 5.70746C10.4081 5.7075 10.1327 5.76836 9.87684 5.88637C9.62097 6.0044 9.38988 6.17713 9.19751 6.39416C9.0051 6.61119 8.85541 6.86804 8.75738 7.14923C8.65938 7.43043 8.61513 7.73013 8.62724 8.03029L8.74681 11.4292C8.75302 11.6212 8.8282 11.8031 8.95646 11.9363C9.08468 12.0695 9.25592 12.1436 9.4339 12.1429H9.76204C9.86124 12.143 9.95709 12.1817 10.032 12.2519C10.1069 12.3221 10.1559 12.4191 10.1699 12.5252L10.6921 16.4656H12.0319C12.042 16.4656 12.0521 16.466 12.0621 16.4668H13.3096L13.8318 12.5263C13.8458 12.4203 13.8948 12.3233 13.9697 12.2531C14.0446 12.1828 14.1404 12.1442 14.2396 12.1441H14.5672C14.7452 12.1448 14.9164 12.0707 15.0447 11.9375C15.1729 11.8043 15.2481 11.6224 15.2543 11.4304L15.3739 8.03384C15.3864 7.73339 15.3425 7.43331 15.2447 7.1517C15.1469 6.87011 14.9973 6.61282 14.8049 6.39539C14.6124 6.17798 14.3812 6.00492 14.1251 5.88668C13.869 5.76845 13.5933 5.70748 13.3148 5.70746H10.6863ZM12.0003 0.890598C11.7109 0.890598 11.428 0.983266 11.1873 1.15688C10.9467 1.3305 10.7592 1.57726 10.6484 1.86597C10.5377 2.15467 10.5087 2.47237 10.5652 2.77884C10.6216 3.08534 10.761 3.36688 10.9656 3.58784C11.1703 3.8088 11.431 3.95927 11.7148 4.02024C11.9987 4.08121 12.2929 4.04993 12.5602 3.93033C12.8276 3.81074 13.0561 3.60824 13.2169 3.3484C13.3777 3.08858 13.4635 2.7831 13.4635 2.47061C13.463 2.0517 13.3088 1.65011 13.0345 1.3539C12.7601 1.05769 12.3882 0.891069 12.0003 0.890598Z" fill="white"/>
<path d="M10.6863 5.70746C10.4081 5.7075 10.1327 5.76836 9.87684 5.88637C9.62097 6.0044 9.38988 6.17713 9.19751 6.39416C9.0051 6.61119 8.85541 6.86804 8.75738 7.14923C8.65938 7.43043 8.61513 7.73013 8.62724 8.03029L8.74681 11.4292C8.75302 11.6212 8.8282 11.8031 8.95646 11.9363C9.08468 12.0695 9.25592 12.1436 9.4339 12.1429H9.76204C9.86124 12.143 9.95709 12.1817 10.032 12.2519C10.1069 12.3221 10.1559 12.4191 10.1699 12.5252L10.6921 16.4656H12.0319C12.042 16.4656 12.0521 16.466 12.0621 16.4668H13.3096L13.8318 12.5263C13.8458 12.4203 13.8948 12.3233 13.9697 12.2531C14.0446 12.1828 14.1404 12.1442 14.2396 12.1441H14.5672C14.7452 12.1448 14.9164 12.0707 15.0447 11.9375C15.1729 11.8043 15.2481 11.6224 15.2543 11.4304L15.3739 8.03384C15.3864 7.73339 15.3425 7.43331 15.2447 7.1517C15.1469 6.87011 14.9973 6.61282 14.8049 6.39539C14.6124 6.17798 14.3812 6.00492 14.1251 5.88668C13.869 5.76845 13.5933 5.70748 13.3148 5.70746H10.6863Z" fill="white"/>
<path d="M11.1873 1.15688C11.428 0.983266 11.7109 0.890598 12.0003 0.890598C12.3882 0.891069 12.7601 1.05769 13.0345 1.3539C13.3088 1.65011 13.463 2.0517 13.4635 2.47061C13.4635 2.7831 13.3777 3.08858 13.2169 3.3484C13.0561 3.60824 12.8276 3.81074 12.5602 3.93033C12.2929 4.04993 11.9987 4.08121 11.7148 4.02024C11.431 3.95927 11.1703 3.8088 10.9656 3.58784C10.761 3.36688 10.6216 3.08534 10.5652 2.77884C10.5087 2.47237 10.5377 2.15467 10.6484 1.86597C10.7592 1.57726 10.9467 1.3305 11.1873 1.15688Z" fill="white"/>
</svg>
