<svg width="50" height="41" viewBox="0 0 50 41" fill="none" xmlns="http://www.w3.org/2000/svg">
<g id="dc">
<g id="Vector">
<path d="M29.5009 2.3865C29.5009 4.86992 27.4803 6.89 24.9974 6.89C22.5139 6.89 20.4939 4.86992 20.4939 2.3865H17.2383C17.2383 6.66479 20.7191 10.1455 24.9974 10.1455C29.2756 10.1455 32.7564 6.66479 32.7564 2.3865H29.5009Z" fill="white"/>
<path d="M49.2918 12.1759L36.7042 1.16135C36.4073 0.901837 36.0264 0.758807 35.6321 0.758789H14.3626C13.9683 0.758974 13.5874 0.901983 13.2904 1.16135L0.702392 12.1759C0.0675364 12.7315 -0.0376904 13.6799 0.459807 14.3609L6.04848 22.012C6.57801 22.7358 7.59378 22.8953 8.31978 22.3684L11.463 20.0852L11.3241 38.7275C11.3226 38.9423 11.3636 39.1553 11.4447 39.3541C11.5258 39.553 11.6454 39.7339 11.7966 39.8865C11.9479 40.039 12.1278 40.16 12.3261 40.2426C12.5244 40.3252 12.737 40.3678 12.9518 40.3678H37.0428C37.2576 40.3677 37.4702 40.3251 37.6685 40.2425C37.8668 40.1598 38.0467 40.0388 38.198 39.8864C38.3493 39.7339 38.4689 39.553 38.55 39.3541C38.6311 39.1553 38.6721 38.9423 38.6705 38.7275L38.531 20.0852L41.6738 22.3684C42.4003 22.8952 43.4154 22.7368 43.9456 22.012L49.5342 14.3609C50.0319 13.6799 49.9266 12.7315 49.2918 12.1759ZM42.275 18.7814L37.8372 15.5573C37.5933 15.3805 37.3052 15.2747 37.0048 15.2516C36.7045 15.2286 36.4036 15.2891 36.1356 15.4266C35.8676 15.5642 35.6431 15.7735 35.4872 16.0312C35.3312 16.289 35.2499 16.5849 35.2522 16.8862L35.4031 37.1123H14.5921L14.7424 16.8851C14.7446 16.5839 14.6632 16.288 14.5072 16.0303C14.3513 15.7726 14.1269 15.5633 13.859 15.4255C13.5911 15.2881 13.2903 15.2275 12.9901 15.2506C12.6898 15.2737 12.4018 15.3795 12.158 15.5563L7.72017 18.7803L3.96821 13.6442L14.9741 4.01432H35.0206L46.0265 13.6453L42.275 18.7814Z" fill="white"/>
</g>
</g>
</svg>
