<svg width="142" height="90" viewBox="0 0 142 90" fill="none" xmlns="http://www.w3.org/2000/svg">
<path fill-rule="evenodd" clip-rule="evenodd" d="M93.6511 0.00315494C92.5983 0.0213534 91.5515 0.118204 90.5227 0.291686L93.6511 0.0041149V0.00315494ZM76.1641 14.1605C76.1385 14.4902 76.1257 14.8209 76.1257 15.1521V73.57C76.1257 75.5598 76.5885 77.5301 77.4875 79.3684C78.3866 81.2068 79.7044 82.8771 81.3657 84.2841C83.027 85.6911 84.9992 86.8072 87.1698 87.5687C89.3404 88.3302 91.6668 88.7221 94.0162 88.7221C96.3656 88.7221 98.692 88.3302 100.863 87.5687C103.033 86.8072 105.005 85.6911 106.667 84.2841C108.328 82.8771 109.646 81.2068 110.545 79.3684C111.444 77.5301 111.907 75.5598 111.907 73.57V15.7493L98.7095 13.4375C98.7193 13.4568 98.7289 13.4761 98.7384 13.4955C98.9953 14.0207 99.1275 14.5836 99.1275 15.1521L99.1277 73.57C99.1277 74.1385 98.9953 74.7014 98.7384 75.2266C98.4815 75.7518 98.105 76.229 97.6304 76.631C97.1558 77.033 96.5923 77.3518 95.9722 77.5694C95.3521 77.7869 94.6874 77.8989 94.0162 77.8989C93.345 77.8989 92.6803 77.7869 92.0602 77.5694C91.44 77.3518 90.8766 77.033 90.4019 76.631C89.9273 76.229 89.5508 75.7518 89.294 75.2266C89.0371 74.7014 88.9049 74.1385 88.9049 73.57L88.9046 15.1521C88.9046 14.5836 89.0371 14.0207 89.294 13.4955C89.391 13.2971 89.5051 13.1055 89.6352 12.9222L76.1641 14.1605ZM101.432 1.36301C101.244 1.29041 101.054 1.22052 100.863 1.15339C98.692 0.39192 96.3656 0 94.0162 0C93.8999 0 93.7837 0.000960037 93.6675 0.0028774L101.432 1.36301Z" fill="#CB0B0B"/>
<path d="M111.907 35.2333H111.907C111.925 33.9578 112.311 32.6961 113.046 31.5171C113.798 30.31 114.901 29.2132 116.291 28.2893C117.681 27.3654 119.331 26.6326 121.148 26.1326C122.964 25.6326 124.91 25.3753 126.876 25.3753C128.842 25.3753 130.789 25.6326 132.605 26.1326C134.421 26.6326 136.071 27.3654 137.461 28.2893C138.851 29.2132 139.954 30.31 140.706 31.5171C141.441 32.6961 141.828 33.9578 141.845 35.2333H141.846V48.0122H129.067V35.249C129.056 35.0514 129 34.8566 128.902 34.6735C128.792 34.467 128.63 34.2795 128.427 34.1215C128.223 33.9635 127.981 33.8382 127.715 33.7527C127.449 33.6672 127.164 33.6232 126.876 33.6232C126.588 33.6232 126.303 33.6672 126.037 33.7527C125.771 33.8382 125.529 33.9635 125.326 34.1215C125.122 34.2795 124.961 34.467 124.85 34.6735C124.753 34.8566 124.697 35.0515 124.686 35.2492V80.1261C124.697 80.3238 124.753 80.5186 124.85 80.7018C124.961 80.9082 125.122 81.0957 125.326 81.2537C125.529 81.4117 125.771 81.537 126.037 81.6225C126.303 81.708 126.588 81.752 126.876 81.752C127.164 81.752 127.449 81.708 127.715 81.6225C127.981 81.537 128.223 81.4117 128.427 81.2537C128.63 81.0957 128.792 80.9082 128.902 80.7018C129 80.5186 129.056 80.3239 129.067 80.1262V63.7119H141.846V80.142H141.845C141.828 81.4175 141.441 82.6791 140.706 83.8581C139.954 85.0652 138.851 86.162 137.461 87.0859C136.071 88.0098 134.421 88.7427 132.605 89.2427C130.789 89.7427 128.842 90 126.876 90C124.91 90 122.964 89.7427 121.148 89.2427C119.331 88.7427 117.681 88.0098 116.291 87.0859C114.901 86.162 113.798 85.0652 113.046 83.8581C112.311 82.6791 111.925 81.4175 111.907 80.142H111.907V35.2333Z" fill="black"/>
<path d="M36.785 26.6531H24.0061L19.3053 38.8073L14.6045 26.6531H1.82556L12.9158 55.3276L0 88.7221H12.7789L19.3053 71.8479L25.8316 88.7221H38.6105L25.6947 55.3276L36.785 26.6531Z" fill="black"/>
<path fill-rule="evenodd" clip-rule="evenodd" d="M50.0203 26.6531L39.9797 88.7221H52.7586L54.8258 75.9432H63.2153L65.2637 88.7221H87.6267C97.755 87.5465 98.9241 82.4288 100.365 76.1207L100.406 75.9432L111.907 26.6531H99.1278L94.0162 48.5598L88.9046 26.6531H76.1257L87.6267 75.9432H76.0667L68.0933 26.6531H50.0203ZM61.1669 63.1643H56.893L59.0397 49.8936L61.1669 63.1643Z" fill="black"/>
<path d="M93.6511 0L141.846 7.12107V17.7079L93.6511 10.5868V10.5882L1.82558 17.7079V7.12315L93.6511 0.00315494L93.6511 0Z" fill="#CB0B0B"/>
</svg>
