<svg width="51" height="35" viewBox="0 0 51 35" fill="none" xmlns="http://www.w3.org/2000/svg">
<path d="M48.7946 28.7459C48.7946 28.8931 48.6452 29.3892 47.452 30.0944C46.342 30.7505 44.6531 31.3845 42.4572 31.9334C38.0845 33.0266 31.9778 33.716 25.1865 33.716C18.3952 33.716 12.2886 33.0266 7.91587 31.9334C5.71996 31.3845 4.03106 30.7505 2.92106 30.0944C1.72788 29.3892 1.57847 28.8931 1.57847 28.7459C1.57847 28.5986 1.72788 28.1025 2.92106 27.3973C4.03106 26.7412 5.71996 26.1073 7.91587 25.5583C12.2886 24.4651 18.3952 23.7757 25.1865 23.7757C31.9778 23.7757 38.0845 24.4651 42.4572 25.5583C44.6531 26.1073 46.342 26.7412 47.452 27.3973C48.6452 28.1025 48.7946 28.5986 48.7946 28.7459Z" stroke="white" stroke-width="2.48506" stroke-linejoin="round"/>
<path d="M43.1402 28.5425C43.1406 28.5425 43.1382 28.5458 43.1315 28.5521C43.1364 28.5456 43.1397 28.5424 43.1402 28.5425ZM42.1349 28.4898C42.4219 28.5802 42.645 28.667 42.8115 28.746C42.645 28.8251 42.4219 28.9118 42.1349 29.0023C41.2525 29.2805 39.9372 29.5415 38.2663 29.7643C34.9352 30.2084 30.3102 30.4856 25.1858 30.4856C20.0614 30.4856 15.4364 30.2084 12.1053 29.7643C10.4343 29.5415 9.11905 29.2805 8.23665 29.0023C7.94965 28.9118 7.7266 28.8251 7.56006 28.746C7.7266 28.667 7.94965 28.5802 8.23665 28.4898C9.11905 28.2116 10.4343 27.9506 12.1053 27.7278C15.4364 27.2837 20.0614 27.0065 25.1858 27.0065C30.3102 27.0065 34.9352 27.2837 38.2663 27.7278C39.9372 27.9506 41.2525 28.2116 42.1349 28.4898ZM7.23142 28.5425C7.23186 28.5424 7.23518 28.5456 7.24008 28.5521C7.23343 28.5458 7.23099 28.5425 7.23142 28.5425ZM7.23142 28.9496C7.23099 28.9496 7.23343 28.9463 7.24008 28.94C7.23518 28.9465 7.23186 28.9497 7.23142 28.9496ZM43.1315 28.94C43.1382 28.9463 43.1406 28.9496 43.1402 28.9496C43.1397 28.9497 43.1364 28.9465 43.1315 28.94Z" fill="white" stroke="white" stroke-width="1.49104" stroke-linejoin="round"/>
<path fill-rule="evenodd" clip-rule="evenodd" d="M36.7093 8.53566C37.0019 8.7327 37.3182 8.8874 37.6489 8.99691H36.6359C35.9788 8.99691 35.3284 9.13099 34.724 9.39103C34.1197 9.65105 33.5738 10.0317 33.1193 10.51C32.6648 10.9883 32.311 11.5544 32.0793 12.1741C31.8476 12.7939 31.7428 13.4545 31.7711 14.1161L31.9729 19.4648C31.9956 20.1213 32.2676 20.7439 32.7327 21.204C33.1977 21.6642 33.8204 21.9269 34.472 21.9377L35.3532 28.1441C35.3768 28.3111 35.4595 28.464 35.586 28.5746C35.7125 28.6852 35.8744 28.7461 36.0418 28.7461H41.6662C41.8335 28.7458 41.9951 28.6849 42.1214 28.5743C42.2478 28.4637 42.3303 28.311 42.3539 28.1441L43.2351 21.9377C43.8868 21.9269 44.5094 21.6642 44.9745 21.204C45.4395 20.7439 45.7115 20.1213 45.7342 19.4648L45.9359 14.1199C45.9648 13.4579 45.8604 12.7969 45.629 12.1767C45.3975 11.5565 45.0438 10.99 44.5892 10.5113C44.1346 10.0326 43.5885 9.65163 42.9839 9.39135C42.3793 9.13107 41.7287 8.99691 41.0712 8.99691H40.0561C40.6261 8.80821 41.1502 8.48648 41.5824 8.05091C42.3061 7.32163 42.7132 6.33278 42.7143 5.30135C42.7144 4.53187 42.488 3.77962 42.0639 3.13977C41.6398 2.49995 41.0369 2.00122 40.3316 1.70668C39.6262 1.41214 38.85 1.33503 38.1012 1.48511C37.3524 1.63516 36.6645 2.00567 36.1245 2.54973C35.5846 3.09381 35.217 3.78701 35.068 4.54171C34.919 5.29641 34.9954 6.07867 35.2875 6.78958C35.5797 7.50049 36.0745 8.10814 36.7093 8.53566ZM36.6369 10.3991C36.1673 10.3991 35.7027 10.495 35.271 10.6808C34.8392 10.8667 34.4493 11.1387 34.1247 11.4805C33.8 11.8223 33.5474 12.2268 33.382 12.6697C33.2166 13.1125 33.142 13.5845 33.1624 14.0572L33.3642 19.4102C33.3746 19.7126 33.5015 19.9991 33.7179 20.2088C33.9343 20.4187 34.2232 20.5354 34.5235 20.5342H35.0772C35.2446 20.5343 35.4064 20.5952 35.5328 20.7058C35.6592 20.8164 35.7418 20.9692 35.7655 21.1362L36.6466 27.342H38.9074C38.9244 27.342 38.9414 27.3427 38.9583 27.3439H41.0633L41.9445 21.138C41.9681 20.971 42.0507 20.8182 42.1771 20.7077C42.3035 20.5971 42.4653 20.5362 42.6327 20.5361H43.1855C43.4857 20.5372 43.7747 20.4205 43.9911 20.2107C44.2075 20.0009 44.3343 19.7144 44.3449 19.412L44.5466 14.0628C44.5678 13.5897 44.4937 13.1171 44.3287 12.6736C44.1636 12.2301 43.9112 11.8249 43.5865 11.4825C43.2617 11.1401 42.8715 10.8675 42.4394 10.6813C42.0072 10.4951 41.5421 10.3991 41.0722 10.3991H36.6369ZM38.854 2.813C38.3657 2.813 37.8883 2.95894 37.4823 3.23237C37.0763 3.50579 36.7598 3.89441 36.5729 4.3491C36.3861 4.80378 36.3372 5.30411 36.4324 5.78678C36.5277 6.26948 36.7629 6.71287 37.1081 7.06087C37.4535 7.40886 37.8934 7.64583 38.3724 7.74185C38.8513 7.83787 39.3477 7.78861 39.7989 7.60025C40.25 7.41192 40.6356 7.09299 40.9069 6.68377C41.1782 6.27459 41.323 5.79349 41.323 5.30135C41.3223 4.64161 41.0619 4.00915 40.5991 3.54265C40.1362 3.07616 39.5086 2.81374 38.854 2.813Z" fill="#8F8F8F"/>
<path d="M36.6369 10.3991C36.1673 10.3991 35.7027 10.495 35.271 10.6808C34.8392 10.8667 34.4493 11.1387 34.1247 11.4805C33.8 11.8223 33.5474 12.2268 33.382 12.6697C33.2166 13.1125 33.142 13.5845 33.1624 14.0572L33.3642 19.4102C33.3746 19.7126 33.5015 19.9991 33.7179 20.2088C33.9343 20.4187 34.2232 20.5354 34.5235 20.5342H35.0772C35.2446 20.5343 35.4064 20.5952 35.5328 20.7058C35.6592 20.8164 35.7418 20.9692 35.7655 21.1362L36.6466 27.342H38.9074C38.9244 27.342 38.9414 27.3427 38.9583 27.3439H41.0633L41.9445 21.138C41.9681 20.971 42.0507 20.8182 42.1771 20.7077C42.3035 20.5971 42.4653 20.5362 42.6327 20.5361H43.1855C43.4857 20.5372 43.7747 20.4205 43.9911 20.2107C44.2075 20.0009 44.3343 19.7144 44.3449 19.412L44.5466 14.0628C44.5678 13.5897 44.4937 13.1171 44.3287 12.6736C44.1636 12.2301 43.9112 11.8249 43.5865 11.4825C43.2617 11.1401 42.8715 10.8675 42.4394 10.6813C42.0072 10.4951 41.5421 10.3991 41.0722 10.3991H36.6369Z" fill="#8F8F8F"/>
<path d="M37.4823 3.23237C37.8883 2.95894 38.3657 2.813 38.854 2.813C39.5086 2.81374 40.1362 3.07616 40.5991 3.54265C41.0619 4.00915 41.3223 4.64161 41.323 5.30135C41.323 5.79349 41.1782 6.27459 40.9069 6.68377C40.6356 7.09299 40.25 7.41192 39.7989 7.60025C39.3477 7.78861 38.8513 7.83787 38.3724 7.74185C37.8934 7.64583 37.4535 7.40886 37.1081 7.06087C36.7629 6.71287 36.5277 6.26948 36.4324 5.78678C36.3372 5.30411 36.3861 4.80378 36.5729 4.3491C36.7598 3.89441 37.0763 3.50579 37.4823 3.23237Z" fill="#8F8F8F"/>
<path fill-rule="evenodd" clip-rule="evenodd" d="M9.32845 8.53566C9.62102 8.7327 9.9373 8.8874 10.268 8.99691H9.25503C8.5979 8.99691 7.94756 9.13099 7.34319 9.39103C6.73887 9.65105 6.19298 10.0317 5.73845 10.51C5.28393 10.9883 4.93017 11.5544 4.69847 12.1741C4.46676 12.7939 4.36192 13.4545 4.39028 14.1161L4.59204 19.4648C4.61474 20.1213 4.88675 20.7439 5.35181 21.204C5.81686 21.6642 6.43952 21.9269 7.09116 21.9377L7.9723 28.1441C7.99596 28.3111 8.07867 28.464 8.20514 28.5746C8.33166 28.6852 8.49351 28.7461 8.66096 28.7461H14.2854C14.4527 28.7458 14.6143 28.6849 14.7406 28.5743C14.8669 28.4637 14.9495 28.311 14.9731 28.1441L15.8542 21.9377C16.5059 21.9269 17.1285 21.6642 17.5936 21.204C18.0587 20.7439 18.3306 20.1213 18.3534 19.4648L18.5551 14.1199C18.584 13.4579 18.4795 12.7969 18.2481 12.1767C18.0166 11.5565 17.6629 10.99 17.2083 10.5113C16.7537 10.0326 16.2077 9.65163 15.6031 9.39135C14.9985 9.13107 14.3478 8.99691 13.6903 8.99691H12.6752C13.2453 8.80821 13.7693 8.48648 14.2015 8.05091C14.9252 7.32163 15.3323 6.33278 15.3334 5.30135C15.3335 4.53187 15.1072 3.77962 14.6831 3.13977C14.2589 2.49995 13.6561 2.00122 12.9507 1.70668C12.2454 1.41214 11.4692 1.33503 10.7203 1.48511C9.97149 1.63516 9.28362 2.00567 8.74367 2.54973C8.20378 3.09381 7.83609 3.78701 7.68709 4.54171C7.5381 5.29641 7.61452 6.07867 7.90669 6.78958C8.19885 7.50049 8.69363 8.10814 9.32845 8.53566ZM9.25599 10.3991C8.78647 10.3991 8.32187 10.495 7.8901 10.6808C7.45833 10.8667 7.0684 11.1387 6.7438 11.4805C6.41914 11.8223 6.16654 12.2268 6.00113 12.6697C5.83577 13.1125 5.7611 13.5845 5.78153 14.0572L5.98329 19.4102C5.99377 19.7126 6.12063 19.9991 6.33705 20.2088C6.55342 20.4187 6.84236 20.5354 7.14267 20.5342H7.69638C7.86378 20.5343 8.02551 20.5952 8.15192 20.7058C8.27833 20.8164 8.36093 20.9692 8.38459 21.1362L9.26573 27.342H11.5265C11.5436 27.342 11.5605 27.3427 11.5775 27.3439H13.6825L14.5636 21.138C14.5873 20.971 14.6699 20.8182 14.7963 20.7077C14.9227 20.5971 15.0844 20.5362 15.2518 20.5361H15.8046C16.1049 20.5372 16.3938 20.4205 16.6102 20.2107C16.8266 20.0009 16.9535 19.7144 16.964 19.412L17.1657 14.0628C17.1869 13.5897 17.1128 13.1171 16.9478 12.6736C16.7828 12.2301 16.5303 11.8249 16.2056 11.4825C15.8808 11.1401 15.4907 10.8675 15.0585 10.6813C14.6263 10.4951 14.1613 10.3991 13.6913 10.3991H9.25599ZM11.4731 2.813C10.9848 2.813 10.5075 2.95894 10.1014 3.23237C9.6954 3.50579 9.37895 3.89441 9.19208 4.3491C9.00521 4.80378 8.9563 5.30411 9.05157 5.78678C9.14685 6.26948 9.38201 6.71287 9.72727 7.06087C10.0726 7.40886 10.5125 7.64583 10.9915 7.74185C11.4704 7.83787 11.9668 7.78861 12.418 7.60025C12.8691 7.41192 13.2548 7.09299 13.5261 6.68377C13.7974 6.27459 13.9421 5.79349 13.9421 5.30135C13.9414 4.64161 13.6811 4.00915 13.2182 3.54265C12.7553 3.07616 12.1277 2.81374 11.4731 2.813Z" fill="white"/>
<path d="M9.25599 10.3991C8.78647 10.3991 8.32187 10.495 7.8901 10.6808C7.45833 10.8667 7.0684 11.1387 6.7438 11.4805C6.41914 11.8223 6.16654 12.2268 6.00113 12.6697C5.83577 13.1125 5.7611 13.5845 5.78153 14.0572L5.98329 19.4102C5.99377 19.7126 6.12063 19.9991 6.33705 20.2088C6.55342 20.4187 6.84236 20.5354 7.14267 20.5342H7.69638C7.86378 20.5343 8.02551 20.5952 8.15192 20.7058C8.27833 20.8164 8.36093 20.9692 8.38459 21.1362L9.26573 27.342H11.5265C11.5436 27.342 11.5605 27.3427 11.5775 27.3439H13.6825L14.5636 21.138C14.5873 20.971 14.6699 20.8182 14.7963 20.7077C14.9227 20.5971 15.0844 20.5362 15.2518 20.5361H15.8046C16.1049 20.5372 16.3938 20.4205 16.6102 20.2107C16.8266 20.0009 16.9535 19.7144 16.964 19.412L17.1657 14.0628C17.1869 13.5897 17.1128 13.1171 16.9478 12.6736C16.7828 12.2301 16.5303 11.8249 16.2056 11.4825C15.8808 11.1401 15.4907 10.8675 15.0585 10.6813C14.6263 10.4951 14.1613 10.3991 13.6913 10.3991H9.25599Z" fill="white"/>
<path d="M10.1014 3.23237C10.5075 2.95894 10.9848 2.813 11.4731 2.813C12.1277 2.81374 12.7553 3.07616 13.2182 3.54265C13.6811 4.00915 13.9414 4.64161 13.9421 5.30135C13.9421 5.79349 13.7974 6.27459 13.5261 6.68377C13.2548 7.09299 12.8691 7.41192 12.418 7.60025C11.9668 7.78861 11.4704 7.83787 10.9915 7.74185C10.5125 7.64583 10.0726 7.40886 9.72727 7.06087C9.38201 6.71287 9.14685 6.26948 9.05157 5.78678C8.9563 5.30411 9.00521 4.80378 9.19208 4.3491C9.37895 3.89441 9.6954 3.50579 10.1014 3.23237Z" fill="white"/>
<path fill-rule="evenodd" clip-rule="evenodd" d="M22.5543 8.91237C22.9134 9.15418 23.3016 9.34404 23.7074 9.47844H22.4642C21.6577 9.47844 20.8596 9.64299 20.1179 9.96214C19.3762 10.2813 18.7063 10.7484 18.1484 11.3354C17.5906 11.9224 17.1564 12.6172 16.8721 13.3777C16.5877 14.1383 16.459 14.9491 16.4938 15.7611L16.7415 22.3254C16.7693 23.1311 17.1032 23.8951 17.6739 24.4599C18.2447 25.0247 19.0088 25.347 19.8086 25.3603L20.89 32.9772C20.919 33.1823 21.0205 33.3699 21.1757 33.5056C21.331 33.6413 21.5296 33.716 21.7351 33.716H28.6378C28.8431 33.7158 29.0415 33.6409 29.1965 33.5052C29.3516 33.3695 29.4528 33.1821 29.4818 32.9772L30.5632 25.3603C31.363 25.347 32.1271 25.0247 32.6979 24.4599C33.2687 23.8951 33.6025 23.1311 33.6304 22.3254L33.8779 15.7657C33.9134 14.9533 33.7852 14.142 33.5012 13.3809C33.2171 12.6198 32.783 11.9245 32.2251 11.337C31.6672 10.7495 30.997 10.282 30.255 9.96252C29.513 9.64309 28.7145 9.47844 27.9076 9.47844H26.6617C27.3613 9.24685 28.0045 8.85201 28.5349 8.31744C29.4231 7.42241 29.9227 6.20883 29.924 4.94298C29.9242 3.99862 29.6464 3.07541 29.1259 2.29013C28.6054 1.50489 27.8655 0.892816 26.9998 0.531338C26.1342 0.169861 25.1816 0.0752287 24.2626 0.259416C23.3435 0.443568 22.4993 0.898277 21.8366 1.56599C21.1741 2.23373 20.7228 3.08447 20.5399 4.0107C20.3571 4.93692 20.4509 5.89696 20.8094 6.76944C21.168 7.64193 21.7752 8.38767 22.5543 8.91237ZM22.4654 11.1993C21.8892 11.1993 21.319 11.317 20.7891 11.545C20.2592 11.7732 19.7806 12.107 19.3823 12.5265C18.9838 12.946 18.6738 13.4424 18.4708 13.9859C18.2679 14.5294 18.1762 15.1087 18.2013 15.6889L18.4489 22.2583C18.4618 22.6295 18.6175 22.9811 18.8831 23.2385C19.1486 23.496 19.5032 23.6393 19.8718 23.6378H20.5513C20.7568 23.638 20.9553 23.7127 21.1104 23.8484C21.2656 23.9841 21.3669 24.1717 21.396 24.3766L22.4774 31.9929H25.252C25.2729 31.9929 25.2937 31.9937 25.3145 31.9952H27.8979L28.9793 24.3789C29.0083 24.174 29.1097 23.9864 29.2648 23.8507C29.42 23.715 29.6185 23.6402 29.8239 23.6401H30.5024C30.8709 23.6415 31.2255 23.4983 31.4911 23.2408C31.7566 22.9833 31.9123 22.6318 31.9252 22.2606L32.1728 15.6957C32.1988 15.115 32.1079 14.535 31.9054 13.9907C31.7028 13.4464 31.393 12.9492 30.9945 12.5289C30.5959 12.1087 30.117 11.7742 29.5867 11.5456C29.0563 11.3171 28.4855 11.1993 27.9087 11.1993H22.4654ZM25.1864 1.88909C24.5871 1.88909 24.0013 2.0682 23.503 2.40377C23.0047 2.73934 22.6163 3.21629 22.387 3.77431C22.1576 4.33233 22.0976 4.94637 22.2145 5.53874C22.3315 6.13114 22.6201 6.6753 23.0438 7.10239C23.4676 7.52947 24.0075 7.8203 24.5953 7.93815C25.1831 8.05599 25.7924 7.99553 26.3461 7.76436C26.8997 7.53322 27.373 7.14181 27.7059 6.63959C28.0389 6.13741 28.2166 5.54697 28.2166 4.94298C28.2157 4.1333 27.8962 3.3571 27.3281 2.78458C26.76 2.21206 25.9898 1.89 25.1864 1.88909Z" fill="white"/>
<path d="M22.4654 11.1993C21.8892 11.1993 21.319 11.317 20.7891 11.545C20.2592 11.7732 19.7806 12.107 19.3823 12.5265C18.9838 12.946 18.6738 13.4424 18.4708 13.9859C18.2679 14.5294 18.1762 15.1087 18.2013 15.6889L18.4489 22.2583C18.4618 22.6295 18.6175 22.9811 18.8831 23.2385C19.1486 23.496 19.5032 23.6393 19.8718 23.6378H20.5513C20.7568 23.638 20.9553 23.7127 21.1104 23.8484C21.2656 23.9841 21.3669 24.1717 21.396 24.3766L22.4774 31.9929H25.252C25.2729 31.9929 25.2937 31.9937 25.3145 31.9952H27.8979L28.9793 24.3789C29.0083 24.174 29.1097 23.9864 29.2648 23.8507C29.42 23.715 29.6185 23.6402 29.8239 23.6401H30.5024C30.8709 23.6415 31.2255 23.4983 31.4911 23.2408C31.7566 22.9833 31.9123 22.6318 31.9252 22.2606L32.1728 15.6957C32.1988 15.115 32.1079 14.535 31.9054 13.9907C31.7028 13.4464 31.393 12.9492 30.9945 12.5289C30.5959 12.1087 30.117 11.7742 29.5867 11.5456C29.0563 11.3171 28.4855 11.1993 27.9087 11.1993H22.4654Z" fill="white"/>
<path d="M23.503 2.40377C24.0013 2.0682 24.5871 1.88909 25.1864 1.88909C25.9898 1.89 26.76 2.21206 27.3281 2.78458C27.8962 3.3571 28.2157 4.1333 28.2166 4.94298C28.2166 5.54697 28.0389 6.13741 27.7059 6.63959C27.373 7.14181 26.8997 7.53322 26.3461 7.76436C25.7924 7.99553 25.1831 8.05599 24.5953 7.93815C24.0075 7.8203 23.4676 7.52947 23.0438 7.10239C22.6201 6.6753 22.3315 6.13114 22.2145 5.53874C22.0976 4.94637 22.1576 4.33233 22.387 3.77431C22.6163 3.21629 23.0047 2.73934 23.503 2.40377Z" fill="white"/>
</svg>
